<mxfile host="app.diagrams.net" agent="Mozilla/5.0 (Macintosh; Intel Mac OS X 10_15_7) AppleWebKit/537.36 (KHTML, like Gecko) Chrome/132.0.0.0 Safari/537.36" version="26.0.11" pages="2">
  <diagram id="zB4D0Zn1a5sWIB_5QHZO" name="Page-1">
    <mxGraphModel dx="3342" dy="762" grid="1" gridSize="7" guides="1" tooltips="1" connect="1" arrows="1" fold="1" page="1" pageScale="1" pageWidth="1920" pageHeight="1200" math="0" shadow="0">
      <root>
        <mxCell id="0" />
        <mxCell id="1" parent="0" />
        <mxCell id="u7dPjCdoEQU-WYultVdr-2" value="Messag Queue&lt;br&gt;" style="strokeWidth=2;html=1;shape=mxgraph.flowchart.direct_data;whiteSpace=wrap;" parent="1" vertex="1">
          <mxGeometry x="307" y="274" width="140" height="60" as="geometry" />
        </mxCell>
        <mxCell id="u7dPjCdoEQU-WYultVdr-3" value="Colelction" style="rounded=0;whiteSpace=wrap;html=1;" parent="1" vertex="1">
          <mxGeometry x="187" y="134" width="120" height="60" as="geometry" />
        </mxCell>
        <mxCell id="u7dPjCdoEQU-WYultVdr-6" value="" style="endArrow=classic;html=1;exitX=0.5;exitY=1;exitDx=0;exitDy=0;" parent="1" source="u7dPjCdoEQU-WYultVdr-3" target="u7dPjCdoEQU-WYultVdr-2" edge="1">
          <mxGeometry width="50" height="50" relative="1" as="geometry">
            <mxPoint x="207" y="384" as="sourcePoint" />
            <mxPoint x="257" y="334" as="targetPoint" />
          </mxGeometry>
        </mxCell>
        <mxCell id="u7dPjCdoEQU-WYultVdr-7" value="Analysis" style="rounded=0;whiteSpace=wrap;html=1;" parent="1" vertex="1">
          <mxGeometry x="437" y="126" width="120" height="60" as="geometry" />
        </mxCell>
        <mxCell id="u7dPjCdoEQU-WYultVdr-81" value="Data Access" style="strokeWidth=2;html=1;shape=mxgraph.flowchart.database;whiteSpace=wrap;" parent="1" vertex="1">
          <mxGeometry x="629" y="274" width="60" height="67" as="geometry" />
        </mxCell>
        <mxCell id="u7dPjCdoEQU-WYultVdr-82" value="Long-Term Storage" style="whiteSpace=wrap;html=1;shape=mxgraph.basic.cloud_rect" parent="1" vertex="1">
          <mxGeometry x="447" y="217" width="120" height="48" as="geometry" />
        </mxCell>
        <mxCell id="u7dPjCdoEQU-WYultVdr-83" value="" style="endArrow=classic;startArrow=classic;html=1;exitX=0.514;exitY=0.015;exitDx=0;exitDy=0;exitPerimeter=0;" parent="1" source="u7dPjCdoEQU-WYultVdr-82" target="u7dPjCdoEQU-WYultVdr-7" edge="1">
          <mxGeometry width="50" height="50" relative="1" as="geometry">
            <mxPoint x="459" y="244" as="sourcePoint" />
            <mxPoint x="509" y="194" as="targetPoint" />
          </mxGeometry>
        </mxCell>
        <mxCell id="u7dPjCdoEQU-WYultVdr-84" value="In-memory Storage" style="whiteSpace=wrap;html=1;shape=mxgraph.basic.cloud_rect" parent="1" vertex="1">
          <mxGeometry x="599" y="86" width="120" height="48" as="geometry" />
        </mxCell>
        <mxCell id="u7dPjCdoEQU-WYultVdr-86" value="" style="endArrow=classic;startArrow=classic;html=1;entryX=1;entryY=0.5;entryDx=0;entryDy=0;" parent="1" target="u7dPjCdoEQU-WYultVdr-7" edge="1">
          <mxGeometry width="50" height="50" relative="1" as="geometry">
            <mxPoint x="662" y="274" as="sourcePoint" />
            <mxPoint x="712" y="224" as="targetPoint" />
          </mxGeometry>
        </mxCell>
        <mxCell id="u7dPjCdoEQU-WYultVdr-87" value="" style="endArrow=none;html=1;exitX=0.219;exitY=0.016;exitDx=0;exitDy=0;exitPerimeter=0;" parent="1" source="u7dPjCdoEQU-WYultVdr-2" edge="1">
          <mxGeometry width="50" height="50" relative="1" as="geometry">
            <mxPoint x="387" y="236" as="sourcePoint" />
            <mxPoint x="437" y="186" as="targetPoint" />
          </mxGeometry>
        </mxCell>
        <mxCell id="u7dPjCdoEQU-WYultVdr-89" value="Push/Pull" style="text;html=1;strokeColor=none;fillColor=none;align=center;verticalAlign=middle;whiteSpace=wrap;rounded=0;" parent="1" vertex="1">
          <mxGeometry x="347" y="203" width="40" height="20" as="geometry" />
        </mxCell>
        <mxCell id="u7dPjCdoEQU-WYultVdr-90" value="" style="html=1;verticalLabelPosition=bottom;labelBackgroundColor=#ffffff;verticalAlign=top;shadow=0;dashed=0;strokeWidth=1;shape=mxgraph.ios7.misc.iphone;strokeColor=#c0c0c0;" parent="1" vertex="1">
          <mxGeometry x="753" y="119" width="41" height="49" as="geometry" />
        </mxCell>
        <mxCell id="u7dPjCdoEQU-WYultVdr-91" value="" style="endArrow=classic;html=1;entryX=0.432;entryY=1.044;entryDx=0;entryDy=0;entryPerimeter=0;exitX=0.5;exitY=0;exitDx=0;exitDy=0;exitPerimeter=0;" parent="1" source="u7dPjCdoEQU-WYultVdr-81" target="u7dPjCdoEQU-WYultVdr-90" edge="1">
          <mxGeometry width="50" height="50" relative="1" as="geometry">
            <mxPoint x="669" y="266" as="sourcePoint" />
            <mxPoint x="747" y="224" as="targetPoint" />
          </mxGeometry>
        </mxCell>
        <mxCell id="u7dPjCdoEQU-WYultVdr-92" value="http" style="text;html=1;strokeColor=none;fillColor=none;align=center;verticalAlign=middle;whiteSpace=wrap;rounded=0;" parent="1" vertex="1">
          <mxGeometry x="690" y="238" width="40" height="20" as="geometry" />
        </mxCell>
        <mxCell id="u7dPjCdoEQU-WYultVdr-93" value="" style="points=[];aspect=fixed;html=1;align=center;shadow=0;dashed=0;image;image=img/lib/allied_telesis/computer_and_terminals/Personal_Computer.svg;" parent="1" vertex="1">
          <mxGeometry x="774" y="196.2" width="45.6" height="61.800000000000004" as="geometry" />
        </mxCell>
        <mxCell id="u7dPjCdoEQU-WYultVdr-98" value="" style="endArrow=classic;html=1;" parent="1" target="u7dPjCdoEQU-WYultVdr-93" edge="1">
          <mxGeometry width="50" height="50" relative="1" as="geometry">
            <mxPoint x="664" y="272" as="sourcePoint" />
            <mxPoint x="730" y="224" as="targetPoint" />
          </mxGeometry>
        </mxCell>
        <mxCell id="u7dPjCdoEQU-WYultVdr-99" value="" style="points=[];aspect=fixed;html=1;align=center;shadow=0;dashed=0;image;image=img/lib/allied_telesis/computer_and_terminals/Tablet.svg;" parent="1" vertex="1">
          <mxGeometry x="774" y="294" width="27" height="57" as="geometry" />
        </mxCell>
        <mxCell id="u7dPjCdoEQU-WYultVdr-100" value="" style="endArrow=classic;html=1;entryX=-0.066;entryY=0.44;entryDx=0;entryDy=0;entryPerimeter=0;exitX=0.5;exitY=0;exitDx=0;exitDy=0;exitPerimeter=0;" parent="1" source="u7dPjCdoEQU-WYultVdr-81" target="u7dPjCdoEQU-WYultVdr-99" edge="1">
          <mxGeometry width="50" height="50" relative="1" as="geometry">
            <mxPoint x="694" y="294" as="sourcePoint" />
            <mxPoint x="744" y="244" as="targetPoint" />
          </mxGeometry>
        </mxCell>
        <mxCell id="u7dPjCdoEQU-WYultVdr-101" value="Data Access" style="strokeWidth=2;html=1;shape=mxgraph.flowchart.database;whiteSpace=wrap;" parent="1" vertex="1">
          <mxGeometry x="250" y="504" width="60" height="67" as="geometry" />
        </mxCell>
        <mxCell id="u7dPjCdoEQU-WYultVdr-102" value="" style="html=1;verticalLabelPosition=bottom;labelBackgroundColor=#ffffff;verticalAlign=top;shadow=0;dashed=0;strokeWidth=1;shape=mxgraph.ios7.misc.iphone;strokeColor=#c0c0c0;" parent="1" vertex="1">
          <mxGeometry x="399" y="378" width="41" height="49" as="geometry" />
        </mxCell>
        <mxCell id="u7dPjCdoEQU-WYultVdr-104" value="channel" style="text;html=1;strokeColor=none;fillColor=none;align=center;verticalAlign=middle;whiteSpace=wrap;rounded=0;" parent="1" vertex="1">
          <mxGeometry x="320" y="476" width="40" height="20" as="geometry" />
        </mxCell>
        <mxCell id="u7dPjCdoEQU-WYultVdr-105" value="" style="points=[];aspect=fixed;html=1;align=center;shadow=0;dashed=0;image;image=img/lib/allied_telesis/computer_and_terminals/Personal_Computer.svg;" parent="1" vertex="1">
          <mxGeometry x="420" y="455.2" width="45.6" height="61.800000000000004" as="geometry" />
        </mxCell>
        <mxCell id="u7dPjCdoEQU-WYultVdr-107" value="" style="points=[];aspect=fixed;html=1;align=center;shadow=0;dashed=0;image;image=img/lib/allied_telesis/computer_and_terminals/Tablet.svg;" parent="1" vertex="1">
          <mxGeometry x="420" y="553" width="27" height="57" as="geometry" />
        </mxCell>
        <mxCell id="u7dPjCdoEQU-WYultVdr-109" value="subscribers" style="text;html=1;strokeColor=none;fillColor=none;align=center;verticalAlign=middle;whiteSpace=wrap;rounded=0;rotation=-75;fontStyle=1" parent="1" vertex="1">
          <mxGeometry x="465.6" y="476" width="73" height="28" as="geometry" />
        </mxCell>
        <mxCell id="u7dPjCdoEQU-WYultVdr-112" value="" style="shape=flexArrow;endArrow=classic;html=1;" parent="1" edge="1">
          <mxGeometry width="50" height="50" relative="1" as="geometry">
            <mxPoint x="330" y="540" as="sourcePoint" />
            <mxPoint x="399" y="490" as="targetPoint" />
          </mxGeometry>
        </mxCell>
        <mxCell id="u7dPjCdoEQU-WYultVdr-113" value="Publish Update" style="edgeLabel;html=1;align=center;verticalAlign=middle;resizable=0;points=[];" parent="u7dPjCdoEQU-WYultVdr-112" vertex="1" connectable="0">
          <mxGeometry x="-0.2303" y="-3" relative="1" as="geometry">
            <mxPoint as="offset" />
          </mxGeometry>
        </mxCell>
        <mxCell id="u7dPjCdoEQU-WYultVdr-114" value="Long-Term in-memory Storage" style="whiteSpace=wrap;html=1;shape=mxgraph.basic.cloud_rect" parent="1" vertex="1">
          <mxGeometry x="63" y="511" width="134" height="50.5" as="geometry" />
        </mxCell>
        <mxCell id="u7dPjCdoEQU-WYultVdr-115" value="" style="html=1;shadow=0;dashed=0;align=center;verticalAlign=middle;shape=mxgraph.arrows2.uTurnArrow;dy=11;arrowHead=43;dx2=25;" parent="1" vertex="1">
          <mxGeometry x="154" y="574" width="91" height="70" as="geometry" />
        </mxCell>
        <mxCell id="u7dPjCdoEQU-WYultVdr-116" value="Client will subscribe to channel&lt;br&gt;" style="text;html=1;strokeColor=none;fillColor=none;align=center;verticalAlign=middle;whiteSpace=wrap;rounded=0;" parent="1" vertex="1">
          <mxGeometry x="473" y="399" width="154" height="28" as="geometry" />
        </mxCell>
        <mxCell id="u7dPjCdoEQU-WYultVdr-117" value="Server will publish message when new data is available" style="text;html=1;strokeColor=none;fillColor=none;align=center;verticalAlign=middle;whiteSpace=wrap;rounded=0;" parent="1" vertex="1">
          <mxGeometry x="126" y="427" width="203" height="20" as="geometry" />
        </mxCell>
        <mxCell id="24a-mGjXgg-N6J_SjT-v-1" value="Facebook" style="swimlane;" parent="1" vertex="1">
          <mxGeometry x="42.5" y="25" width="89" height="94" as="geometry" />
        </mxCell>
        <mxCell id="24a-mGjXgg-N6J_SjT-v-2" value="" style="endArrow=classic;html=1;entryX=0;entryY=0.5;entryDx=0;entryDy=0;exitX=1;exitY=0.5;exitDx=0;exitDy=0;" parent="1" source="24a-mGjXgg-N6J_SjT-v-1" target="u7dPjCdoEQU-WYultVdr-3" edge="1">
          <mxGeometry width="50" height="50" relative="1" as="geometry">
            <mxPoint x="98" y="168" as="sourcePoint" />
            <mxPoint x="148" y="118" as="targetPoint" />
          </mxGeometry>
        </mxCell>
        <mxCell id="24a-mGjXgg-N6J_SjT-v-3" value="Twitter" style="swimlane;" parent="1" vertex="1">
          <mxGeometry x="6" y="134" width="89" height="94" as="geometry" />
        </mxCell>
        <mxCell id="24a-mGjXgg-N6J_SjT-v-4" value="Weibo" style="swimlane;" parent="1" vertex="1">
          <mxGeometry x="119" y="274" width="89" height="94" as="geometry" />
        </mxCell>
        <mxCell id="24a-mGjXgg-N6J_SjT-v-5" value="" style="endArrow=classic;html=1;entryX=0;entryY=0.75;entryDx=0;entryDy=0;" parent="1" target="u7dPjCdoEQU-WYultVdr-3" edge="1">
          <mxGeometry width="50" height="50" relative="1" as="geometry">
            <mxPoint x="98" y="189" as="sourcePoint" />
            <mxPoint x="155" y="217" as="targetPoint" />
          </mxGeometry>
        </mxCell>
        <mxCell id="24a-mGjXgg-N6J_SjT-v-7" value="" style="endArrow=classic;html=1;" parent="1" edge="1">
          <mxGeometry width="50" height="50" relative="1" as="geometry">
            <mxPoint x="161" y="273" as="sourcePoint" />
            <mxPoint x="182" y="194" as="targetPoint" />
          </mxGeometry>
        </mxCell>
        <mxCell id="24a-mGjXgg-N6J_SjT-v-9" value="Message Queue&lt;br&gt;&amp;nbsp;Kafka" style="strokeWidth=2;html=1;shape=mxgraph.flowchart.direct_data;whiteSpace=wrap;" parent="1" vertex="1">
          <mxGeometry x="354" y="840" width="150" height="74" as="geometry" />
        </mxCell>
        <mxCell id="24a-mGjXgg-N6J_SjT-v-14" value="" style="endArrow=classic;html=1;entryX=-0.007;entryY=0.217;entryDx=0;entryDy=0;exitX=1;exitY=0.5;exitDx=0;exitDy=0;entryPerimeter=0;" parent="1" source="24a-mGjXgg-N6J_SjT-v-18" target="24a-mGjXgg-N6J_SjT-v-9" edge="1">
          <mxGeometry width="50" height="50" relative="1" as="geometry">
            <mxPoint x="180" y="872" as="sourcePoint" />
            <mxPoint x="269" y="868" as="targetPoint" />
          </mxGeometry>
        </mxCell>
        <mxCell id="24a-mGjXgg-N6J_SjT-v-15" value="Weibo" style="swimlane;" parent="1" vertex="1">
          <mxGeometry x="201" y="978" width="89" height="94" as="geometry" />
        </mxCell>
        <mxCell id="24a-mGjXgg-N6J_SjT-v-16" value="" style="endArrow=classic;html=1;" parent="1" edge="1">
          <mxGeometry width="50" height="50" relative="1" as="geometry">
            <mxPoint x="201" y="942" as="sourcePoint" />
            <mxPoint x="348" y="882" as="targetPoint" />
          </mxGeometry>
        </mxCell>
        <mxCell id="24a-mGjXgg-N6J_SjT-v-17" value="" style="endArrow=classic;html=1;entryX=0.007;entryY=0.9;entryDx=0;entryDy=0;entryPerimeter=0;" parent="1" target="24a-mGjXgg-N6J_SjT-v-9" edge="1">
          <mxGeometry width="50" height="50" relative="1" as="geometry">
            <mxPoint x="251" y="982" as="sourcePoint" />
            <mxPoint x="286" y="903" as="targetPoint" />
          </mxGeometry>
        </mxCell>
        <mxCell id="24a-mGjXgg-N6J_SjT-v-18" value="Facebook" style="swimlane;" parent="1" vertex="1">
          <mxGeometry x="112" y="756" width="89" height="94" as="geometry" />
        </mxCell>
        <mxCell id="24a-mGjXgg-N6J_SjT-v-19" value="Twitter" style="swimlane;" parent="1" vertex="1">
          <mxGeometry x="112" y="875" width="89" height="94" as="geometry" />
        </mxCell>
        <mxCell id="24a-mGjXgg-N6J_SjT-v-20" value="Collect Data&lt;br&gt;" style="text;html=1;strokeColor=none;fillColor=none;align=center;verticalAlign=middle;whiteSpace=wrap;rounded=0;" parent="1" vertex="1">
          <mxGeometry x="355.5" y="798" width="77" height="27" as="geometry" />
        </mxCell>
        <mxCell id="24a-mGjXgg-N6J_SjT-v-22" value="Topic Facebook" style="strokeWidth=2;html=1;shape=mxgraph.flowchart.stored_data;whiteSpace=wrap;" parent="1" vertex="1">
          <mxGeometry x="467" y="959" width="100" height="60" as="geometry" />
        </mxCell>
        <mxCell id="24a-mGjXgg-N6J_SjT-v-23" value="" style="endArrow=none;dashed=1;html=1;exitX=0.5;exitY=1;exitDx=0;exitDy=0;exitPerimeter=0;entryX=0.5;entryY=0;entryDx=0;entryDy=0;entryPerimeter=0;" parent="1" source="24a-mGjXgg-N6J_SjT-v-9" target="24a-mGjXgg-N6J_SjT-v-22" edge="1">
          <mxGeometry width="50" height="50" relative="1" as="geometry">
            <mxPoint x="397" y="1072" as="sourcePoint" />
            <mxPoint x="447" y="1022" as="targetPoint" />
          </mxGeometry>
        </mxCell>
        <mxCell id="24a-mGjXgg-N6J_SjT-v-24" value="Topic Twitter" style="strokeWidth=2;html=1;shape=mxgraph.flowchart.stored_data;whiteSpace=wrap;" parent="1" vertex="1">
          <mxGeometry x="467" y="1050" width="100" height="60" as="geometry" />
        </mxCell>
        <mxCell id="24a-mGjXgg-N6J_SjT-v-25" value="" style="endArrow=none;dashed=1;html=1;dashPattern=1 3;strokeWidth=2;exitX=0;exitY=0.5;exitDx=0;exitDy=0;exitPerimeter=0;" parent="1" source="24a-mGjXgg-N6J_SjT-v-24" edge="1">
          <mxGeometry width="50" height="50" relative="1" as="geometry">
            <mxPoint x="383" y="988" as="sourcePoint" />
            <mxPoint x="434" y="917" as="targetPoint" />
          </mxGeometry>
        </mxCell>
        <mxCell id="24a-mGjXgg-N6J_SjT-v-26" value="Topic Weibo&lt;br&gt;" style="strokeWidth=2;html=1;shape=mxgraph.flowchart.stored_data;whiteSpace=wrap;" parent="1" vertex="1">
          <mxGeometry x="467" y="1127" width="100" height="60" as="geometry" />
        </mxCell>
        <mxCell id="24a-mGjXgg-N6J_SjT-v-27" value="" style="endArrow=none;dashed=1;html=1;dashPattern=1 3;strokeWidth=2;exitX=0;exitY=0.5;exitDx=0;exitDy=0;exitPerimeter=0;" parent="1" source="24a-mGjXgg-N6J_SjT-v-26" edge="1">
          <mxGeometry width="50" height="50" relative="1" as="geometry">
            <mxPoint x="397" y="1065" as="sourcePoint" />
            <mxPoint x="434" y="914" as="targetPoint" />
          </mxGeometry>
        </mxCell>
        <mxCell id="24a-mGjXgg-N6J_SjT-v-40" value="Producer" style="ellipse;shape=cloud;whiteSpace=wrap;html=1;dashed=1;" parent="1" vertex="1">
          <mxGeometry x="-28" y="834" width="120" height="80" as="geometry" />
        </mxCell>
        <mxCell id="24a-mGjXgg-N6J_SjT-v-36" value="Topic" style="swimlane;fontStyle=0;childLayout=stackLayout;horizontal=1;startSize=26;fillColor=none;horizontalStack=0;resizeParent=1;resizeParentMax=0;resizeLast=0;collapsible=1;marginBottom=0;" parent="1" vertex="1">
          <mxGeometry x="611" y="938" width="94" height="104" as="geometry" />
        </mxCell>
        <mxCell id="24a-mGjXgg-N6J_SjT-v-37" value="Partition 1" style="text;strokeColor=none;fillColor=none;align=left;verticalAlign=top;spacingLeft=4;spacingRight=4;overflow=hidden;rotatable=0;points=[[0,0.5],[1,0.5]];portConstraint=eastwest;" parent="24a-mGjXgg-N6J_SjT-v-36" vertex="1">
          <mxGeometry y="26" width="94" height="26" as="geometry" />
        </mxCell>
        <mxCell id="24a-mGjXgg-N6J_SjT-v-38" value="Partition 2" style="text;strokeColor=none;fillColor=none;align=left;verticalAlign=top;spacingLeft=4;spacingRight=4;overflow=hidden;rotatable=0;points=[[0,0.5],[1,0.5]];portConstraint=eastwest;" parent="24a-mGjXgg-N6J_SjT-v-36" vertex="1">
          <mxGeometry y="52" width="94" height="26" as="geometry" />
        </mxCell>
        <mxCell id="24a-mGjXgg-N6J_SjT-v-39" value="Partition 3" style="text;strokeColor=none;fillColor=none;align=left;verticalAlign=top;spacingLeft=4;spacingRight=4;overflow=hidden;rotatable=0;points=[[0,0.5],[1,0.5]];portConstraint=eastwest;" parent="24a-mGjXgg-N6J_SjT-v-36" vertex="1">
          <mxGeometry y="78" width="94" height="26" as="geometry" />
        </mxCell>
        <mxCell id="24a-mGjXgg-N6J_SjT-v-41" value="Contains data of social media" style="shape=callout;whiteSpace=wrap;html=1;perimeter=calloutPerimeter;dashed=1;position2=1;" parent="1" vertex="1">
          <mxGeometry x="320" y="1078" width="120" height="80" as="geometry" />
        </mxCell>
        <mxCell id="24a-mGjXgg-N6J_SjT-v-44" value="&lt;a href=&quot;https://edwardthienhoang.wordpress.com/2020/05/04/system-design-co-ban-phan-16-message-broker/&quot;&gt;https://edwardthienhoang.wordpress.com/2020/05/04/system-design-co-ban-phan-16-message-broker/&lt;/a&gt;" style="shape=note;size=20;whiteSpace=wrap;html=1;dashed=1;" parent="1" vertex="1">
          <mxGeometry x="-35" y="1169" width="364" height="32" as="geometry" />
        </mxCell>
        <mxCell id="24a-mGjXgg-N6J_SjT-v-45" value="Message Borker" style="shape=note;size=20;whiteSpace=wrap;html=1;dashed=1;" parent="1" vertex="1">
          <mxGeometry x="484" y="791" width="115" height="43" as="geometry" />
        </mxCell>
        <mxCell id="24a-mGjXgg-N6J_SjT-v-46" value="&lt;span style=&quot;color: rgb(41 , 43 , 44) ; font-family: &amp;#34;open sans&amp;#34; , , &amp;#34;blinkmacsystemfont&amp;#34; , &amp;#34;segoe ui&amp;#34; , &amp;#34;helvetica neue&amp;#34; , &amp;#34;arial&amp;#34; , sans-serif , &amp;#34;apple color emoji&amp;#34; , &amp;#34;segoe ui emoji&amp;#34; , &amp;#34;segoe ui symbol&amp;#34; ; text-align: left ; background-color: rgb(255 , 255 , 255)&quot;&gt;Xử lý dữ liệu theo thời gian thực (real-time data processing): Sử dụng đồng thời Kafka và Spark cho giải pháp streaming.&lt;/span&gt;" style="shape=note;size=20;whiteSpace=wrap;html=1;dashed=1;" parent="1" vertex="1">
          <mxGeometry x="292.5" y="1373.5" width="399" height="32" as="geometry" />
        </mxCell>
        <mxCell id="uCAJaLIvxssrV7Yk87P6-1" value="Message Queue&lt;br&gt;&amp;nbsp;Kafka" style="strokeWidth=2;html=1;shape=mxgraph.flowchart.direct_data;whiteSpace=wrap;" parent="1" vertex="1">
          <mxGeometry x="19.5" y="1581.5" width="150" height="74" as="geometry" />
        </mxCell>
        <mxCell id="uCAJaLIvxssrV7Yk87P6-2" value="" style="endArrow=classic;html=1;entryX=-0.007;entryY=0.217;entryDx=0;entryDy=0;exitX=1;exitY=0.5;exitDx=0;exitDy=0;entryPerimeter=0;" parent="1" source="uCAJaLIvxssrV7Yk87P6-6" target="uCAJaLIvxssrV7Yk87P6-1" edge="1">
          <mxGeometry width="50" height="50" relative="1" as="geometry">
            <mxPoint x="-310" y="1634.5" as="sourcePoint" />
            <mxPoint x="-221" y="1630.5" as="targetPoint" />
          </mxGeometry>
        </mxCell>
        <mxCell id="uCAJaLIvxssrV7Yk87P6-3" value="Weibo" style="swimlane;" parent="1" vertex="1">
          <mxGeometry x="-289" y="1740.5" width="89" height="94" as="geometry" />
        </mxCell>
        <mxCell id="uCAJaLIvxssrV7Yk87P6-4" value="" style="endArrow=classic;html=1;entryX=-0.013;entryY=0.635;entryDx=0;entryDy=0;entryPerimeter=0;" parent="1" target="uCAJaLIvxssrV7Yk87P6-1" edge="1">
          <mxGeometry width="50" height="50" relative="1" as="geometry">
            <mxPoint x="-289" y="1687.5" as="sourcePoint" />
            <mxPoint x="-142" y="1627.5" as="targetPoint" />
          </mxGeometry>
        </mxCell>
        <mxCell id="uCAJaLIvxssrV7Yk87P6-5" value="" style="endArrow=classic;html=1;entryX=0.007;entryY=0.9;entryDx=0;entryDy=0;entryPerimeter=0;exitX=0.75;exitY=0;exitDx=0;exitDy=0;" parent="1" source="uCAJaLIvxssrV7Yk87P6-3" target="uCAJaLIvxssrV7Yk87P6-1" edge="1">
          <mxGeometry width="50" height="50" relative="1" as="geometry">
            <mxPoint x="-239" y="1744.5" as="sourcePoint" />
            <mxPoint x="-204" y="1665.5" as="targetPoint" />
          </mxGeometry>
        </mxCell>
        <mxCell id="uCAJaLIvxssrV7Yk87P6-6" value="Facebook" style="swimlane;" parent="1" vertex="1">
          <mxGeometry x="-378" y="1518.5" width="89" height="94" as="geometry" />
        </mxCell>
        <mxCell id="uCAJaLIvxssrV7Yk87P6-7" value="Twitter" style="swimlane;" parent="1" vertex="1">
          <mxGeometry x="-378" y="1637.5" width="89" height="94" as="geometry" />
        </mxCell>
        <mxCell id="uCAJaLIvxssrV7Yk87P6-8" value="Collect Data&lt;br&gt;" style="text;html=1;strokeColor=none;fillColor=none;align=center;verticalAlign=middle;whiteSpace=wrap;rounded=0;" parent="1" vertex="1">
          <mxGeometry x="21" y="1539.5" width="77" height="27" as="geometry" />
        </mxCell>
        <mxCell id="uCAJaLIvxssrV7Yk87P6-9" value="Topic &lt;br&gt;social post Facebook" style="strokeWidth=2;html=1;shape=mxgraph.flowchart.stored_data;whiteSpace=wrap;" parent="1" vertex="1">
          <mxGeometry x="132.5" y="1700.5" width="167" height="60" as="geometry" />
        </mxCell>
        <mxCell id="uCAJaLIvxssrV7Yk87P6-10" value="" style="endArrow=none;dashed=1;html=1;exitX=0.5;exitY=1;exitDx=0;exitDy=0;exitPerimeter=0;entryX=0.5;entryY=0;entryDx=0;entryDy=0;entryPerimeter=0;" parent="1" source="uCAJaLIvxssrV7Yk87P6-1" target="uCAJaLIvxssrV7Yk87P6-9" edge="1">
          <mxGeometry width="50" height="50" relative="1" as="geometry">
            <mxPoint x="62.5" y="1813.5" as="sourcePoint" />
            <mxPoint x="112.5" y="1763.5" as="targetPoint" />
          </mxGeometry>
        </mxCell>
        <mxCell id="uCAJaLIvxssrV7Yk87P6-11" value="Topic Twitter" style="strokeWidth=2;html=1;shape=mxgraph.flowchart.stored_data;whiteSpace=wrap;" parent="1" vertex="1">
          <mxGeometry x="132.5" y="1791.5" width="167" height="60" as="geometry" />
        </mxCell>
        <mxCell id="uCAJaLIvxssrV7Yk87P6-12" value="" style="endArrow=none;dashed=1;html=1;dashPattern=1 3;strokeWidth=2;exitX=0;exitY=0.5;exitDx=0;exitDy=0;exitPerimeter=0;" parent="1" source="uCAJaLIvxssrV7Yk87P6-11" edge="1">
          <mxGeometry width="50" height="50" relative="1" as="geometry">
            <mxPoint x="48.5" y="1729.5" as="sourcePoint" />
            <mxPoint x="99.5" y="1658.5" as="targetPoint" />
          </mxGeometry>
        </mxCell>
        <mxCell id="uCAJaLIvxssrV7Yk87P6-13" value="Topic Weibo&lt;br&gt;" style="strokeWidth=2;html=1;shape=mxgraph.flowchart.stored_data;whiteSpace=wrap;" parent="1" vertex="1">
          <mxGeometry x="132.5" y="1868.5" width="167" height="60" as="geometry" />
        </mxCell>
        <mxCell id="uCAJaLIvxssrV7Yk87P6-14" value="" style="endArrow=none;dashed=1;html=1;dashPattern=1 3;strokeWidth=2;exitX=0;exitY=0.5;exitDx=0;exitDy=0;exitPerimeter=0;" parent="1" source="uCAJaLIvxssrV7Yk87P6-13" edge="1">
          <mxGeometry width="50" height="50" relative="1" as="geometry">
            <mxPoint x="62.5" y="1806.5" as="sourcePoint" />
            <mxPoint x="99.5" y="1655.5" as="targetPoint" />
          </mxGeometry>
        </mxCell>
        <mxCell id="uCAJaLIvxssrV7Yk87P6-15" value="Producer" style="ellipse;shape=cloud;whiteSpace=wrap;html=1;dashed=1;" parent="1" vertex="1">
          <mxGeometry x="-420" y="1407" width="120" height="80" as="geometry" />
        </mxCell>
        <mxCell id="uCAJaLIvxssrV7Yk87P6-20" value="Contains data of social media" style="shape=callout;whiteSpace=wrap;html=1;perimeter=calloutPerimeter;dashed=1;position2=1;" parent="1" vertex="1">
          <mxGeometry x="-0.5" y="1819.5" width="120" height="80" as="geometry" />
        </mxCell>
        <mxCell id="uCAJaLIvxssrV7Yk87P6-22" value="Create Post with Tags" style="text;html=1;strokeColor=none;fillColor=none;align=center;verticalAlign=middle;whiteSpace=wrap;rounded=0;" parent="1" vertex="1">
          <mxGeometry x="-232.5" y="1518.5" width="122" height="46" as="geometry" />
        </mxCell>
        <mxCell id="uCAJaLIvxssrV7Yk87P6-25" value="Apache Spark" style="shape=process;whiteSpace=wrap;html=1;backgroundOutline=1;" parent="1" vertex="1">
          <mxGeometry x="442" y="1581.5" width="196" height="60" as="geometry" />
        </mxCell>
        <mxCell id="uCAJaLIvxssrV7Yk87P6-26" value="Data processing" style="shape=callout;whiteSpace=wrap;html=1;perimeter=calloutPerimeter;dashed=1;position2=1;" parent="1" vertex="1">
          <mxGeometry x="329" y="1505" width="143" height="69" as="geometry" />
        </mxCell>
        <mxCell id="uCAJaLIvxssrV7Yk87P6-28" value="" style="endArrow=classic;html=1;entryX=1;entryY=0.5;entryDx=0;entryDy=0;entryPerimeter=0;exitX=0.005;exitY=0.642;exitDx=0;exitDy=0;exitPerimeter=0;" parent="1" edge="1">
          <mxGeometry width="50" height="50" relative="1" as="geometry">
            <mxPoint x="442.98" y="1618.02" as="sourcePoint" />
            <mxPoint x="169.5" y="1616.5" as="targetPoint" />
          </mxGeometry>
        </mxCell>
        <mxCell id="uCAJaLIvxssrV7Yk87P6-29" value="Socket.io&lt;br&gt;Node.JS server" style="rounded=0;whiteSpace=wrap;html=1;" parent="1" vertex="1">
          <mxGeometry x="481.5" y="1917.5" width="161" height="88" as="geometry" />
        </mxCell>
        <mxCell id="uCAJaLIvxssrV7Yk87P6-30" value="" style="endArrow=classic;html=1;exitX=0;exitY=0.75;exitDx=0;exitDy=0;" parent="1" source="uCAJaLIvxssrV7Yk87P6-29" edge="1">
          <mxGeometry width="50" height="50" relative="1" as="geometry">
            <mxPoint x="-316.5" y="1952.5" as="sourcePoint" />
            <mxPoint x="-337.5" y="1770.5" as="targetPoint" />
            <Array as="points">
              <mxPoint x="-337.5" y="1983.5" />
            </Array>
          </mxGeometry>
        </mxCell>
        <mxCell id="uCAJaLIvxssrV7Yk87P6-31" value="Results (No SQL - MongoDB)" style="shape=cylinder2;whiteSpace=wrap;html=1;boundedLbl=1;backgroundOutline=1;size=15;" parent="1" vertex="1">
          <mxGeometry x="753" y="1858.5" width="200" height="80" as="geometry" />
        </mxCell>
        <mxCell id="uCAJaLIvxssrV7Yk87P6-33" value="" style="endArrow=classic;html=1;exitX=0.5;exitY=1;exitDx=0;exitDy=0;entryX=0;entryY=0.525;entryDx=0;entryDy=0;entryPerimeter=0;" parent="1" source="uCAJaLIvxssrV7Yk87P6-25" target="uCAJaLIvxssrV7Yk87P6-31" edge="1">
          <mxGeometry width="50" height="50" relative="1" as="geometry">
            <mxPoint x="579.5" y="1687.5" as="sourcePoint" />
            <mxPoint x="629.5" y="1637.5" as="targetPoint" />
          </mxGeometry>
        </mxCell>
        <mxCell id="uCAJaLIvxssrV7Yk87P6-34" value="Send Push Notification" style="text;html=1;strokeColor=none;fillColor=none;align=center;verticalAlign=middle;whiteSpace=wrap;rounded=0;" parent="1" vertex="1">
          <mxGeometry x="-182" y="1951.5" width="203" height="20" as="geometry" />
        </mxCell>
        <mxCell id="uCAJaLIvxssrV7Yk87P6-35" value="Create Post records" style="text;html=1;strokeColor=none;fillColor=none;align=center;verticalAlign=middle;whiteSpace=wrap;rounded=0;" parent="1" vertex="1">
          <mxGeometry x="546" y="1740.5" width="122" height="46" as="geometry" />
        </mxCell>
        <mxCell id="uCAJaLIvxssrV7Yk87P6-36" value="luồng dữ liệu liên tục từ đầu vào&lt;br&gt;" style="text;html=1;strokeColor=none;fillColor=none;align=center;verticalAlign=middle;whiteSpace=wrap;rounded=0;" parent="1" vertex="1">
          <mxGeometry x="731" y="1372" width="130" height="35" as="geometry" />
        </mxCell>
        <mxCell id="uCAJaLIvxssrV7Yk87P6-37" value="" style="endArrow=classic;html=1;exitX=0.5;exitY=1;exitDx=0;exitDy=0;entryX=0.376;entryY=-0.017;entryDx=0;entryDy=0;entryPerimeter=0;" parent="1" source="uCAJaLIvxssrV7Yk87P6-25" target="uCAJaLIvxssrV7Yk87P6-29" edge="1">
          <mxGeometry width="50" height="50" relative="1" as="geometry">
            <mxPoint x="287" y="1688" as="sourcePoint" />
            <mxPoint x="337" y="1638" as="targetPoint" />
          </mxGeometry>
        </mxCell>
        <mxCell id="uCAJaLIvxssrV7Yk87P6-38" value="Consumer" style="text;html=1;strokeColor=none;fillColor=none;align=center;verticalAlign=middle;whiteSpace=wrap;rounded=0;dashed=1;" parent="1" vertex="1">
          <mxGeometry x="445" y="1841" width="66" height="28" as="geometry" />
        </mxCell>
        <mxCell id="uCAJaLIvxssrV7Yk87P6-40" value="&lt;ul&gt;&lt;li&gt;In-memory&lt;/li&gt;&lt;li&gt;Real time data&lt;/li&gt;&lt;li&gt;Divide mini batch data&lt;/li&gt;&lt;/ul&gt;" style="shape=note;size=20;whiteSpace=wrap;html=1;dashed=1;align=left;" parent="1" vertex="1">
          <mxGeometry x="555" y="1463" width="175" height="63" as="geometry" />
        </mxCell>
        <mxCell id="uCAJaLIvxssrV7Yk87P6-41" value="&lt;a href=&quot;https://www.leggetter.co.uk/real-time-web-technologies-guide/&quot;&gt;https://www.leggetter.co.uk/real-time-web-technologies-guide/&lt;/a&gt;" style="text;html=1;strokeColor=none;fillColor=none;align=center;verticalAlign=middle;whiteSpace=wrap;rounded=0;dashed=1;" parent="1" vertex="1">
          <mxGeometry x="-311.5" y="2030" width="248.5" height="62" as="geometry" />
        </mxCell>
        <mxCell id="2-kWuxi5lFnrXSgUYIgP-1" value="Hadoop" style="shape=cylinder2;whiteSpace=wrap;html=1;boundedLbl=1;backgroundOutline=1;size=15;" parent="1" vertex="1">
          <mxGeometry x="689" y="1645" width="113" height="80" as="geometry" />
        </mxCell>
        <mxCell id="2-kWuxi5lFnrXSgUYIgP-2" value="" style="endArrow=classic;html=1;entryX=0.221;entryY=0;entryDx=0;entryDy=0;entryPerimeter=0;" parent="1" target="2-kWuxi5lFnrXSgUYIgP-1" edge="1">
          <mxGeometry width="50" height="50" relative="1" as="geometry">
            <mxPoint x="638" y="1614.5" as="sourcePoint" />
            <mxPoint x="688" y="1564.5" as="targetPoint" />
          </mxGeometry>
        </mxCell>
        <mxCell id="2-kWuxi5lFnrXSgUYIgP-3" value="Compute sentiment in each data tweet" style="text;html=1;strokeColor=none;fillColor=none;align=center;verticalAlign=middle;whiteSpace=wrap;rounded=0;" parent="1" vertex="1">
          <mxGeometry x="730" y="1554" width="169" height="63" as="geometry" />
        </mxCell>
        <mxCell id="2-kWuxi5lFnrXSgUYIgP-4" value="Message Queue&lt;br&gt;&amp;nbsp;Kafka" style="strokeWidth=2;html=1;shape=mxgraph.flowchart.direct_data;whiteSpace=wrap;" parent="1" vertex="1">
          <mxGeometry x="5.5" y="2285" width="150" height="74" as="geometry" />
        </mxCell>
        <mxCell id="2-kWuxi5lFnrXSgUYIgP-5" value="" style="endArrow=classic;html=1;exitX=1;exitY=0.5;exitDx=0;exitDy=0;" parent="1" source="2-kWuxi5lFnrXSgUYIgP-9" target="2-kWuxi5lFnrXSgUYIgP-4" edge="1">
          <mxGeometry width="50" height="50" relative="1" as="geometry">
            <mxPoint x="-324" y="2356" as="sourcePoint" />
            <mxPoint x="-235" y="2352" as="targetPoint" />
          </mxGeometry>
        </mxCell>
        <mxCell id="2-kWuxi5lFnrXSgUYIgP-9" value="Tweet" style="swimlane;" parent="1" vertex="1">
          <mxGeometry x="-357" y="2275" width="89" height="94" as="geometry" />
        </mxCell>
        <mxCell id="2-kWuxi5lFnrXSgUYIgP-11" value="Collect Data&lt;br&gt;" style="text;html=1;strokeColor=none;fillColor=none;align=center;verticalAlign=middle;whiteSpace=wrap;rounded=0;" parent="1" vertex="1">
          <mxGeometry x="7" y="2243" width="77" height="27" as="geometry" />
        </mxCell>
        <mxCell id="2-kWuxi5lFnrXSgUYIgP-12" value="Topic &lt;br&gt;social post Facebook" style="strokeWidth=2;html=1;shape=mxgraph.flowchart.stored_data;whiteSpace=wrap;" parent="1" vertex="1">
          <mxGeometry x="118.5" y="2404" width="167" height="60" as="geometry" />
        </mxCell>
        <mxCell id="2-kWuxi5lFnrXSgUYIgP-13" value="" style="endArrow=none;dashed=1;html=1;exitX=0.5;exitY=1;exitDx=0;exitDy=0;exitPerimeter=0;entryX=0.5;entryY=0;entryDx=0;entryDy=0;entryPerimeter=0;" parent="1" source="2-kWuxi5lFnrXSgUYIgP-4" target="2-kWuxi5lFnrXSgUYIgP-12" edge="1">
          <mxGeometry width="50" height="50" relative="1" as="geometry">
            <mxPoint x="48.5" y="2517" as="sourcePoint" />
            <mxPoint x="98.5" y="2467" as="targetPoint" />
          </mxGeometry>
        </mxCell>
        <mxCell id="2-kWuxi5lFnrXSgUYIgP-14" value="Topic Twitter" style="strokeWidth=2;html=1;shape=mxgraph.flowchart.stored_data;whiteSpace=wrap;" parent="1" vertex="1">
          <mxGeometry x="118.5" y="2495" width="167" height="60" as="geometry" />
        </mxCell>
        <mxCell id="2-kWuxi5lFnrXSgUYIgP-15" value="" style="endArrow=none;dashed=1;html=1;dashPattern=1 3;strokeWidth=2;exitX=0;exitY=0.5;exitDx=0;exitDy=0;exitPerimeter=0;" parent="1" source="2-kWuxi5lFnrXSgUYIgP-14" edge="1">
          <mxGeometry width="50" height="50" relative="1" as="geometry">
            <mxPoint x="34.5" y="2433" as="sourcePoint" />
            <mxPoint x="85.5" y="2362" as="targetPoint" />
          </mxGeometry>
        </mxCell>
        <mxCell id="2-kWuxi5lFnrXSgUYIgP-16" value="Topic Weibo&lt;br&gt;" style="strokeWidth=2;html=1;shape=mxgraph.flowchart.stored_data;whiteSpace=wrap;" parent="1" vertex="1">
          <mxGeometry x="118.5" y="2572" width="167" height="60" as="geometry" />
        </mxCell>
        <mxCell id="2-kWuxi5lFnrXSgUYIgP-17" value="" style="endArrow=none;dashed=1;html=1;dashPattern=1 3;strokeWidth=2;exitX=0;exitY=0.5;exitDx=0;exitDy=0;exitPerimeter=0;" parent="1" source="2-kWuxi5lFnrXSgUYIgP-16" edge="1">
          <mxGeometry width="50" height="50" relative="1" as="geometry">
            <mxPoint x="48.5" y="2510" as="sourcePoint" />
            <mxPoint x="85.5" y="2359" as="targetPoint" />
          </mxGeometry>
        </mxCell>
        <mxCell id="2-kWuxi5lFnrXSgUYIgP-18" value="Contains data of social media" style="shape=callout;whiteSpace=wrap;html=1;perimeter=calloutPerimeter;dashed=1;position2=1;" parent="1" vertex="1">
          <mxGeometry x="-14.5" y="2541" width="120" height="80" as="geometry" />
        </mxCell>
        <mxCell id="2-kWuxi5lFnrXSgUYIgP-19" value="Create Post with Tags" style="text;html=1;strokeColor=none;fillColor=none;align=center;verticalAlign=middle;whiteSpace=wrap;rounded=0;" parent="1" vertex="1">
          <mxGeometry x="-300" y="2198" width="122" height="46" as="geometry" />
        </mxCell>
        <mxCell id="2-kWuxi5lFnrXSgUYIgP-21" value="Apache Spark" style="shape=process;whiteSpace=wrap;html=1;backgroundOutline=1;" parent="1" vertex="1">
          <mxGeometry x="450.5" y="2330.25" width="196" height="60" as="geometry" />
        </mxCell>
        <mxCell id="2-kWuxi5lFnrXSgUYIgP-23" value="&lt;h1 style=&quot;font-size: 13px&quot;&gt;&lt;font style=&quot;font-size: 13px&quot;&gt;Tweet sentiment analysis flow&lt;/font&gt;&lt;/h1&gt;&lt;div&gt;&lt;ol&gt;&lt;li&gt;&lt;font style=&quot;font-size: 13px&quot;&gt;Create Kafka topic&lt;/font&gt;&lt;/li&gt;&lt;li&gt;&lt;font style=&quot;font-size: 13px&quot;&gt;Extract tweets from timeline and send to Kafka broker&lt;/font&gt;&lt;/li&gt;&lt;li&gt;&lt;font style=&quot;font-size: 13px&quot;&gt;Sprak Structured Streaming pulls tweet data from Kafka broker&lt;/font&gt;&lt;/li&gt;&lt;li&gt;&lt;font style=&quot;font-size: 13px&quot;&gt;Tokenize tweet text data&lt;/font&gt;&lt;/li&gt;&lt;li&gt;&lt;font style=&quot;font-size: 13px&quot;&gt;Compute sentiment score in each tweet&lt;/font&gt;&lt;/li&gt;&lt;li&gt;Output result&lt;/li&gt;&lt;/ol&gt;&lt;/div&gt;" style="text;html=1;strokeColor=none;fillColor=none;spacing=5;spacingTop=-20;whiteSpace=wrap;overflow=hidden;rounded=0;fontSize=13;verticalAlign=top;" parent="1" vertex="1">
          <mxGeometry x="691.5" y="2149" width="257" height="175" as="geometry" />
        </mxCell>
        <mxCell id="2-kWuxi5lFnrXSgUYIgP-24" value="&lt;a href=&quot;https://www.youtube.com/watch?v=zo2JmaodIUg&quot;&gt;https://www.youtube.com/watch?v=zo2JmaodIUg&lt;/a&gt;" style="text;html=1;strokeColor=none;fillColor=none;align=center;verticalAlign=middle;whiteSpace=wrap;rounded=0;fontSize=13;" parent="1" vertex="1">
          <mxGeometry x="589" y="2114" width="40" height="20" as="geometry" />
        </mxCell>
        <mxCell id="2-kWuxi5lFnrXSgUYIgP-27" value="" style="endArrow=classic;html=1;fontSize=13;entryX=1;entryY=0.5;entryDx=0;entryDy=0;entryPerimeter=0;exitX=0;exitY=0.5;exitDx=0;exitDy=0;" parent="1" source="2-kWuxi5lFnrXSgUYIgP-21" target="2-kWuxi5lFnrXSgUYIgP-4" edge="1">
          <mxGeometry width="50" height="50" relative="1" as="geometry">
            <mxPoint x="447" y="2369" as="sourcePoint" />
            <mxPoint x="497" y="2319" as="targetPoint" />
          </mxGeometry>
        </mxCell>
        <mxCell id="2-kWuxi5lFnrXSgUYIgP-28" value="Pulls data from Message Queue" style="text;html=1;strokeColor=none;fillColor=none;align=center;verticalAlign=middle;whiteSpace=wrap;rounded=0;fontSize=13;" parent="1" vertex="1">
          <mxGeometry x="299.5" y="2275" width="141.5" height="20" as="geometry" />
        </mxCell>
        <mxCell id="hFV85xr7uH7SJprDEmjW-1" value="Long-Term Storage" style="whiteSpace=wrap;html=1;shape=mxgraph.basic.cloud_rect" parent="1" vertex="1">
          <mxGeometry x="819.6" y="1645" width="120" height="48" as="geometry" />
        </mxCell>
        <mxCell id="hFV85xr7uH7SJprDEmjW-2" value="Case 1: Notification" style="text;html=1;strokeColor=none;fillColor=none;align=center;verticalAlign=middle;whiteSpace=wrap;rounded=0;" parent="1" vertex="1">
          <mxGeometry x="-447" y="2758" width="147" height="20" as="geometry" />
        </mxCell>
        <mxCell id="hFV85xr7uH7SJprDEmjW-3" value="Message Queue&lt;br&gt;&amp;nbsp;Kafka" style="strokeWidth=2;html=1;shape=mxgraph.flowchart.direct_data;whiteSpace=wrap;" parent="1" vertex="1">
          <mxGeometry x="-89.5" y="2814" width="150" height="74" as="geometry" />
        </mxCell>
        <mxCell id="hFV85xr7uH7SJprDEmjW-4" value="Collect Data&lt;br&gt;" style="text;html=1;strokeColor=none;fillColor=none;align=center;verticalAlign=middle;whiteSpace=wrap;rounded=0;" parent="1" vertex="1">
          <mxGeometry x="-88" y="2772" width="77" height="27" as="geometry" />
        </mxCell>
        <mxCell id="hFV85xr7uH7SJprDEmjW-5" value="chat-topic" style="strokeWidth=2;html=1;shape=mxgraph.flowchart.stored_data;whiteSpace=wrap;" parent="1" vertex="1">
          <mxGeometry x="23.5" y="2933" width="167" height="60" as="geometry" />
        </mxCell>
        <mxCell id="hFV85xr7uH7SJprDEmjW-6" value="" style="endArrow=none;dashed=1;html=1;exitX=0.5;exitY=1;exitDx=0;exitDy=0;exitPerimeter=0;entryX=0.5;entryY=0;entryDx=0;entryDy=0;entryPerimeter=0;" parent="1" source="hFV85xr7uH7SJprDEmjW-3" target="hFV85xr7uH7SJprDEmjW-5" edge="1">
          <mxGeometry width="50" height="50" relative="1" as="geometry">
            <mxPoint x="-46.5" y="3046" as="sourcePoint" />
            <mxPoint x="3.5" y="2996" as="targetPoint" />
          </mxGeometry>
        </mxCell>
        <mxCell id="hFV85xr7uH7SJprDEmjW-9" style="edgeStyle=orthogonalEdgeStyle;rounded=0;orthogonalLoop=1;jettySize=auto;html=1;entryX=0;entryY=0.5;entryDx=0;entryDy=0;entryPerimeter=0;" parent="1" source="hFV85xr7uH7SJprDEmjW-8" target="hFV85xr7uH7SJprDEmjW-3" edge="1">
          <mxGeometry relative="1" as="geometry" />
        </mxCell>
        <mxCell id="hFV85xr7uH7SJprDEmjW-8" value="Client" style="rounded=0;whiteSpace=wrap;html=1;" parent="1" vertex="1">
          <mxGeometry x="-441" y="2821" width="133" height="60" as="geometry" />
        </mxCell>
        <mxCell id="hFV85xr7uH7SJprDEmjW-10" value="Consumer" style="rounded=1;whiteSpace=wrap;html=1;" parent="1" vertex="1">
          <mxGeometry x="501.75" y="2828" width="120" height="53" as="geometry" />
        </mxCell>
        <mxCell id="hFV85xr7uH7SJprDEmjW-12" value="" style="endArrow=classic;html=1;entryX=0.93;entryY=0.5;entryDx=0;entryDy=0;entryPerimeter=0;exitX=-0.017;exitY=0.642;exitDx=0;exitDy=0;exitPerimeter=0;" parent="1" source="hFV85xr7uH7SJprDEmjW-10" target="hFV85xr7uH7SJprDEmjW-5" edge="1">
          <mxGeometry width="50" height="50" relative="1" as="geometry">
            <mxPoint x="-29" y="3101" as="sourcePoint" />
            <mxPoint x="21" y="3051" as="targetPoint" />
          </mxGeometry>
        </mxCell>
        <mxCell id="hFV85xr7uH7SJprDEmjW-13" value="Listener" style="text;html=1;strokeColor=none;fillColor=none;align=center;verticalAlign=middle;whiteSpace=wrap;rounded=0;" parent="1" vertex="1">
          <mxGeometry x="210" y="2841" width="40" height="20" as="geometry" />
        </mxCell>
        <mxCell id="hFV85xr7uH7SJprDEmjW-14" value="add-friend-topic" style="strokeWidth=2;html=1;shape=mxgraph.flowchart.stored_data;whiteSpace=wrap;" parent="1" vertex="1">
          <mxGeometry x="30" y="3045" width="167" height="60" as="geometry" />
        </mxCell>
        <mxCell id="hFV85xr7uH7SJprDEmjW-15" value="Text" style="text;html=1;strokeColor=none;fillColor=none;align=center;verticalAlign=middle;whiteSpace=wrap;rounded=0;" parent="1" vertex="1">
          <mxGeometry x="-154" y="3031" width="97" height="49" as="geometry" />
        </mxCell>
        <mxCell id="hFV85xr7uH7SJprDEmjW-16" value="Socket" style="ellipse;whiteSpace=wrap;html=1;" parent="1" vertex="1">
          <mxGeometry x="327.5" y="3150" width="120" height="70" as="geometry" />
        </mxCell>
        <mxCell id="hFV85xr7uH7SJprDEmjW-17" value="" style="endArrow=classic;html=1;exitX=0.5;exitY=1;exitDx=0;exitDy=0;" parent="1" source="hFV85xr7uH7SJprDEmjW-10" target="hFV85xr7uH7SJprDEmjW-16" edge="1">
          <mxGeometry width="50" height="50" relative="1" as="geometry">
            <mxPoint x="272.75" y="3221" as="sourcePoint" />
            <mxPoint x="322.75" y="3171" as="targetPoint" />
          </mxGeometry>
        </mxCell>
        <mxCell id="hFV85xr7uH7SJprDEmjW-18" value="Redis" style="shape=cylinder2;whiteSpace=wrap;html=1;boundedLbl=1;backgroundOutline=1;size=15;" parent="1" vertex="1">
          <mxGeometry x="315" y="2975" width="84" height="98" as="geometry" />
        </mxCell>
        <mxCell id="UDE9wlmH0UndHr5xgx2V-1" value="Case 2: User typing" style="text;html=1;strokeColor=none;fillColor=none;align=center;verticalAlign=middle;whiteSpace=wrap;rounded=0;" parent="1" vertex="1">
          <mxGeometry x="-427" y="3311" width="133" height="20" as="geometry" />
        </mxCell>
        <mxCell id="UDE9wlmH0UndHr5xgx2V-2" value="Message Queue&lt;br&gt;&amp;nbsp;Kafka" style="strokeWidth=2;html=1;shape=mxgraph.flowchart.direct_data;whiteSpace=wrap;" parent="1" vertex="1">
          <mxGeometry x="-76.5" y="3353" width="150" height="74" as="geometry" />
        </mxCell>
        <mxCell id="UDE9wlmH0UndHr5xgx2V-4" value="group-page-topic" style="strokeWidth=2;html=1;shape=mxgraph.flowchart.stored_data;whiteSpace=wrap;" parent="1" vertex="1">
          <mxGeometry x="36.5" y="3472" width="167" height="60" as="geometry" />
        </mxCell>
        <mxCell id="UDE9wlmH0UndHr5xgx2V-5" value="" style="endArrow=none;dashed=1;html=1;exitX=0.5;exitY=1;exitDx=0;exitDy=0;exitPerimeter=0;entryX=0.5;entryY=0;entryDx=0;entryDy=0;entryPerimeter=0;" parent="1" source="UDE9wlmH0UndHr5xgx2V-2" target="UDE9wlmH0UndHr5xgx2V-4" edge="1">
          <mxGeometry width="50" height="50" relative="1" as="geometry">
            <mxPoint x="-33.5" y="3585" as="sourcePoint" />
            <mxPoint x="16.5" y="3535" as="targetPoint" />
          </mxGeometry>
        </mxCell>
        <mxCell id="UDE9wlmH0UndHr5xgx2V-6" style="edgeStyle=orthogonalEdgeStyle;rounded=0;orthogonalLoop=1;jettySize=auto;html=1;entryX=0;entryY=0.5;entryDx=0;entryDy=0;entryPerimeter=0;" parent="1" source="UDE9wlmH0UndHr5xgx2V-7" target="UDE9wlmH0UndHr5xgx2V-2" edge="1">
          <mxGeometry relative="1" as="geometry" />
        </mxCell>
        <mxCell id="UDE9wlmH0UndHr5xgx2V-7" value="Client" style="rounded=0;whiteSpace=wrap;html=1;" parent="1" vertex="1">
          <mxGeometry x="-428" y="3360" width="133" height="60" as="geometry" />
        </mxCell>
        <mxCell id="UDE9wlmH0UndHr5xgx2V-8" value="Consumer" style="rounded=1;whiteSpace=wrap;html=1;" parent="1" vertex="1">
          <mxGeometry x="582.25" y="3311" width="120" height="53" as="geometry" />
        </mxCell>
        <mxCell id="UDE9wlmH0UndHr5xgx2V-9" value="" style="endArrow=classic;html=1;entryX=0.93;entryY=0.5;entryDx=0;entryDy=0;entryPerimeter=0;exitX=-0.017;exitY=0.642;exitDx=0;exitDy=0;exitPerimeter=0;" parent="1" source="UDE9wlmH0UndHr5xgx2V-8" target="UDE9wlmH0UndHr5xgx2V-4" edge="1">
          <mxGeometry width="50" height="50" relative="1" as="geometry">
            <mxPoint x="-16" y="3640" as="sourcePoint" />
            <mxPoint x="34" y="3590" as="targetPoint" />
          </mxGeometry>
        </mxCell>
        <mxCell id="UDE9wlmH0UndHr5xgx2V-10" value="Listener" style="text;html=1;strokeColor=none;fillColor=none;align=center;verticalAlign=middle;whiteSpace=wrap;rounded=0;" parent="1" vertex="1">
          <mxGeometry x="223" y="3380" width="40" height="20" as="geometry" />
        </mxCell>
        <mxCell id="UDE9wlmH0UndHr5xgx2V-13" value="Socket" style="ellipse;whiteSpace=wrap;html=1;" parent="1" vertex="1">
          <mxGeometry x="582.75" y="3605" width="120" height="70" as="geometry" />
        </mxCell>
        <mxCell id="UDE9wlmH0UndHr5xgx2V-14" value="" style="endArrow=classic;html=1;exitX=0.5;exitY=1;exitDx=0;exitDy=0;" parent="1" source="UDE9wlmH0UndHr5xgx2V-8" target="UDE9wlmH0UndHr5xgx2V-13" edge="1">
          <mxGeometry width="50" height="50" relative="1" as="geometry">
            <mxPoint x="353.25" y="3704" as="sourcePoint" />
            <mxPoint x="403.25" y="3654" as="targetPoint" />
          </mxGeometry>
        </mxCell>
        <mxCell id="UDE9wlmH0UndHr5xgx2V-17" value="&lt;b&gt;Note:&lt;/b&gt;&lt;br&gt;&amp;nbsp;- Create a topic when user create a page.&lt;br&gt;&amp;nbsp;- User join to a page ,that mean user subscribe to the page-topic." style="text;html=1;strokeColor=none;fillColor=none;align=left;verticalAlign=middle;whiteSpace=wrap;rounded=0;" parent="1" vertex="1">
          <mxGeometry x="-238" y="3512" width="245" height="100" as="geometry" />
        </mxCell>
        <mxCell id="hFV85xr7uH7SJprDEmjW-19" value="Redis" style="shape=cylinder2;whiteSpace=wrap;html=1;boundedLbl=1;backgroundOutline=1;size=15;" parent="1" vertex="1">
          <mxGeometry x="329" y="3493" width="97" height="94" as="geometry" />
        </mxCell>
        <mxCell id="hFV85xr7uH7SJprDEmjW-20" value="&lt;div&gt;&amp;nbsp;- một trang page sẽ có một topic&lt;/div&gt;&lt;div&gt;&lt;br&gt;&lt;/div&gt;&lt;div&gt;&amp;nbsp;- user kết nối channel socket lắng nghe trên topic kafka id.&lt;/div&gt;" style="text;html=1;strokeColor=none;fillColor=none;align=left;verticalAlign=middle;whiteSpace=wrap;rounded=0;" parent="1" vertex="1">
          <mxGeometry x="-88" y="3654" width="249" height="77" as="geometry" />
        </mxCell>
        <mxCell id="hFV85xr7uH7SJprDEmjW-21" value="The subscription command contains a Trello model type (board, member, organization, card), and its respective model id" style="text;strokeColor=none;fillColor=none;align=left;verticalAlign=middle;rounded=0;whiteSpace=wrap;fontStyle=1" parent="1" vertex="1">
          <mxGeometry y="3787" width="317" height="63" as="geometry" />
        </mxCell>
        <mxCell id="hFV85xr7uH7SJprDEmjW-37" value="Case 3: Notify in Page" style="text;html=1;strokeColor=none;fillColor=none;align=center;verticalAlign=middle;whiteSpace=wrap;rounded=0;" parent="1" vertex="1">
          <mxGeometry x="-446" y="3920" width="133" height="20" as="geometry" />
        </mxCell>
        <mxCell id="hFV85xr7uH7SJprDEmjW-38" value="Message Queue&lt;br&gt;&amp;nbsp;Kafka" style="strokeWidth=2;html=1;shape=mxgraph.flowchart.direct_data;whiteSpace=wrap;" parent="1" vertex="1">
          <mxGeometry x="-95.5" y="3962" width="150" height="74" as="geometry" />
        </mxCell>
        <mxCell id="hFV85xr7uH7SJprDEmjW-39" value="group-page-topic-1" style="strokeWidth=2;html=1;shape=mxgraph.flowchart.stored_data;whiteSpace=wrap;" parent="1" vertex="1">
          <mxGeometry x="17.5" y="4081" width="167" height="60" as="geometry" />
        </mxCell>
        <mxCell id="hFV85xr7uH7SJprDEmjW-40" value="" style="endArrow=none;dashed=1;html=1;exitX=0.5;exitY=1;exitDx=0;exitDy=0;exitPerimeter=0;entryX=0.5;entryY=0;entryDx=0;entryDy=0;entryPerimeter=0;" parent="1" source="hFV85xr7uH7SJprDEmjW-38" target="hFV85xr7uH7SJprDEmjW-39" edge="1">
          <mxGeometry width="50" height="50" relative="1" as="geometry">
            <mxPoint x="-52.5" y="4194" as="sourcePoint" />
            <mxPoint x="-2.5" y="4144" as="targetPoint" />
          </mxGeometry>
        </mxCell>
        <mxCell id="hFV85xr7uH7SJprDEmjW-41" style="edgeStyle=orthogonalEdgeStyle;rounded=0;orthogonalLoop=1;jettySize=auto;html=1;entryX=0;entryY=0.5;entryDx=0;entryDy=0;entryPerimeter=0;" parent="1" source="hFV85xr7uH7SJprDEmjW-42" target="hFV85xr7uH7SJprDEmjW-38" edge="1">
          <mxGeometry relative="1" as="geometry" />
        </mxCell>
        <mxCell id="hFV85xr7uH7SJprDEmjW-42" value="Client" style="rounded=0;whiteSpace=wrap;html=1;" parent="1" vertex="1">
          <mxGeometry x="-447" y="3969" width="133" height="60" as="geometry" />
        </mxCell>
        <mxCell id="hFV85xr7uH7SJprDEmjW-43" value="Consumer" style="rounded=1;whiteSpace=wrap;html=1;" parent="1" vertex="1">
          <mxGeometry x="488.25" y="3989" width="120" height="53" as="geometry" />
        </mxCell>
        <mxCell id="hFV85xr7uH7SJprDEmjW-44" value="" style="endArrow=classic;html=1;entryX=0.93;entryY=0.5;entryDx=0;entryDy=0;entryPerimeter=0;exitX=-0.017;exitY=0.642;exitDx=0;exitDy=0;exitPerimeter=0;" parent="1" source="hFV85xr7uH7SJprDEmjW-43" target="hFV85xr7uH7SJprDEmjW-39" edge="1">
          <mxGeometry width="50" height="50" relative="1" as="geometry">
            <mxPoint x="-35" y="4249" as="sourcePoint" />
            <mxPoint x="15" y="4199" as="targetPoint" />
          </mxGeometry>
        </mxCell>
        <mxCell id="hFV85xr7uH7SJprDEmjW-45" value="Listener" style="text;html=1;strokeColor=none;fillColor=none;align=center;verticalAlign=middle;whiteSpace=wrap;rounded=0;" parent="1" vertex="1">
          <mxGeometry x="255.5" y="4029" width="40" height="20" as="geometry" />
        </mxCell>
        <mxCell id="hFV85xr7uH7SJprDEmjW-56" style="edgeStyle=orthogonalEdgeStyle;rounded=0;orthogonalLoop=1;jettySize=auto;html=1;fontColor=#000000;" parent="1" source="hFV85xr7uH7SJprDEmjW-46" edge="1">
          <mxGeometry relative="1" as="geometry">
            <mxPoint x="-378" y="4039" as="targetPoint" />
          </mxGeometry>
        </mxCell>
        <mxCell id="hFV85xr7uH7SJprDEmjW-46" value="Socket" style="ellipse;whiteSpace=wrap;html=1;" parent="1" vertex="1">
          <mxGeometry x="488.25" y="4375" width="120" height="70" as="geometry" />
        </mxCell>
        <mxCell id="hFV85xr7uH7SJprDEmjW-47" value="" style="endArrow=classic;html=1;exitX=0.5;exitY=1;exitDx=0;exitDy=0;" parent="1" source="hFV85xr7uH7SJprDEmjW-43" target="hFV85xr7uH7SJprDEmjW-46" edge="1">
          <mxGeometry width="50" height="50" relative="1" as="geometry">
            <mxPoint x="259.25" y="4382" as="sourcePoint" />
            <mxPoint x="309.25" y="4332" as="targetPoint" />
          </mxGeometry>
        </mxCell>
        <mxCell id="hFV85xr7uH7SJprDEmjW-49" value="Redis" style="shape=cylinder2;whiteSpace=wrap;html=1;boundedLbl=1;backgroundOutline=1;size=15;" parent="1" vertex="1">
          <mxGeometry x="307" y="4235" width="66" height="73" as="geometry" />
        </mxCell>
        <mxCell id="hFV85xr7uH7SJprDEmjW-52" value="page_id" style="text;html=1;strokeColor=none;fillColor=none;align=center;verticalAlign=middle;whiteSpace=wrap;rounded=0;fontColor=#000000;" parent="1" vertex="1">
          <mxGeometry x="-233" y="3962" width="40" height="20" as="geometry" />
        </mxCell>
        <mxCell id="hFV85xr7uH7SJprDEmjW-53" value="Receive&amp;nbsp; &lt;b&gt;page_id&lt;/b&gt;" style="text;html=1;strokeColor=none;fillColor=none;align=center;verticalAlign=middle;whiteSpace=wrap;rounded=0;fontColor=#000000;" parent="1" vertex="1">
          <mxGeometry x="385" y="4095" width="105" height="42" as="geometry" />
        </mxCell>
        <mxCell id="IXixxvt3k7oeA3_IxvEV-1" value="group-page-topic-2" style="strokeWidth=2;html=1;shape=mxgraph.flowchart.stored_data;whiteSpace=wrap;" vertex="1" parent="1">
          <mxGeometry x="19.5" y="4193" width="167" height="60" as="geometry" />
        </mxCell>
        <mxCell id="IXixxvt3k7oeA3_IxvEV-3" value="" style="endArrow=classic;html=1;entryX=0.93;entryY=0.5;entryDx=0;entryDy=0;entryPerimeter=0;" edge="1" parent="1" target="IXixxvt3k7oeA3_IxvEV-1">
          <mxGeometry width="50" height="50" relative="1" as="geometry">
            <mxPoint x="483" y="4025" as="sourcePoint" />
            <mxPoint x="260" y="4263" as="targetPoint" />
          </mxGeometry>
        </mxCell>
      </root>
    </mxGraphModel>
  </diagram>
  <diagram id="Du-5-9WouE0G53RS1YqO" name="Authen">
    <mxGraphModel dx="954" dy="615" grid="1" gridSize="10" guides="1" tooltips="1" connect="1" arrows="1" fold="1" page="1" pageScale="1" pageWidth="827" pageHeight="1169" math="0" shadow="0">
      <root>
        <mxCell id="0" />
        <mxCell id="1" parent="0" />
        <mxCell id="lxLdOQvmoHosbvRfJ4kX-1" value="" style="line;strokeWidth=4;direction=south;html=1;perimeter=backbonePerimeter;points=[];outlineConnect=0;" vertex="1" parent="1">
          <mxGeometry x="310" y="80" width="10" height="230" as="geometry" />
        </mxCell>
        <mxCell id="lxLdOQvmoHosbvRfJ4kX-3" value="" style="line;strokeWidth=4;direction=south;html=1;perimeter=backbonePerimeter;points=[];outlineConnect=0;" vertex="1" parent="1">
          <mxGeometry x="840" y="80" width="10" height="230" as="geometry" />
        </mxCell>
        <mxCell id="lxLdOQvmoHosbvRfJ4kX-4" value="Client" style="text;html=1;align=center;verticalAlign=middle;whiteSpace=wrap;rounded=0;fontStyle=1;fontSize=16;" vertex="1" parent="1">
          <mxGeometry x="40" y="90" width="60" height="30" as="geometry" />
        </mxCell>
        <mxCell id="lxLdOQvmoHosbvRfJ4kX-5" value="" style="endArrow=open;endFill=1;endSize=12;html=1;rounded=0;" edge="1" parent="1">
          <mxGeometry width="160" relative="1" as="geometry">
            <mxPoint x="340" y="110" as="sourcePoint" />
            <mxPoint x="830" y="110" as="targetPoint" />
          </mxGeometry>
        </mxCell>
        <mxCell id="lxLdOQvmoHosbvRfJ4kX-6" value="Client will receive the token after successful login in a header/query string etc&lt;div&gt;&lt;br&gt;&lt;/div&gt;" style="text;html=1;align=left;verticalAlign=middle;whiteSpace=wrap;rounded=0;fontStyle=1" vertex="1" parent="1">
          <mxGeometry x="40" y="123" width="260" height="57" as="geometry" />
        </mxCell>
      </root>
    </mxGraphModel>
  </diagram>
</mxfile>
